<svg width="108" height="24" viewBox="0 0 108 24" fill="none" xmlns="http://www.w3.org/2000/svg">
<path d="M3.86369 -2.28882e-05H10.8296L14.3523 14.4091H14.6251L22.9205 -2.28882e-05H29.8864L26.0228 23.2727H20.5455L22.9205 8.97725H22.7273L14.7955 23.125H11.3069L8.0796 8.89771H7.88642L5.47733 23.2727H5.54919e-05L3.86369 -2.28882e-05ZM37.6677 23.6023C35.8268 23.6023 34.3078 23.2235 33.1109 22.4659C31.9215 21.7083 31.0843 20.6515 30.5995 19.2954C30.1146 17.9394 30.0199 16.3636 30.3154 14.5682C30.6109 12.7803 31.2207 11.2121 32.1449 9.86361C33.0692 8.51513 34.251 7.46589 35.6904 6.71589C37.1298 5.96589 38.7624 5.59089 40.5881 5.59089C42.4215 5.59089 43.9328 5.96967 45.1222 6.72725C46.3192 7.48483 47.1601 8.54164 47.6449 9.89771C48.1374 11.2538 48.2359 12.8333 47.9404 14.6363C47.6449 16.4242 47.0313 17.9924 46.0995 19.3409C45.1677 20.6818 43.9859 21.7273 42.554 22.4773C41.1222 23.2273 39.4934 23.6023 37.6677 23.6023ZM38.2927 19.4091C38.9745 19.4091 39.5843 19.2045 40.1222 18.7954C40.6677 18.3863 41.126 17.8144 41.4972 17.0795C41.8684 16.3447 42.1336 15.4924 42.2927 14.5227C42.4518 13.5682 42.4669 12.731 42.3381 12.0113C42.2169 11.2841 41.9593 10.7197 41.5654 10.3182C41.1715 9.90907 40.6374 9.70452 39.9631 9.70452C39.2813 9.70452 38.6677 9.91286 38.1222 10.3295C37.5768 10.7386 37.1184 11.3106 36.7472 12.0454C36.3836 12.7727 36.1222 13.625 35.9631 14.6023C35.804 15.5568 35.7851 16.3939 35.9063 17.1136C36.0275 17.8333 36.2889 18.3977 36.6904 18.8068C37.0919 19.2083 37.626 19.4091 38.2927 19.4091ZM56.5938 13.3182L54.9347 23.2727H49.3779L52.287 5.81816H57.5711L57.0484 9.02271H57.2415C57.787 7.95452 58.5787 7.1174 59.6165 6.51134C60.6544 5.89771 61.8211 5.59089 63.1165 5.59089C64.3362 5.59089 65.3552 5.86361 66.1734 6.40907C66.9915 6.95452 67.5711 7.71967 67.912 8.70452C68.2529 9.6818 68.3097 10.8295 68.0824 12.1477L66.2188 23.2727H60.662L62.3324 13.2386C62.4991 12.2765 62.3817 11.5227 61.9802 10.9773C61.5862 10.4242 60.9423 10.1477 60.0484 10.1477C59.465 10.1477 58.9309 10.2765 58.4461 10.5341C57.9688 10.7841 57.5673 11.1439 57.2415 11.6136C56.9234 12.0833 56.7074 12.6515 56.5938 13.3182ZM77.7387 23.6023C75.9129 23.6023 74.3978 23.2424 73.1932 22.5227C71.9963 21.7954 71.1554 20.7613 70.6705 19.4204C70.1857 18.0719 70.0985 16.4697 70.4091 14.6136C70.7122 12.8106 71.3296 11.2348 72.2614 9.88634C73.2008 8.53028 74.3826 7.47725 75.8069 6.72725C77.2311 5.96967 78.8182 5.59089 80.5682 5.59089C81.8107 5.59089 82.9129 5.78407 83.8751 6.17043C84.8372 6.5568 85.6326 7.13255 86.2614 7.89771C86.8902 8.65528 87.3182 9.5871 87.5455 10.6932C87.7728 11.7992 87.7652 13.0682 87.5228 14.5L87.3069 15.8863H72.1478L72.6591 12.6591H82.6591C82.7501 12.0682 82.7008 11.5416 82.5114 11.0795C82.322 10.6174 82.0152 10.2576 81.591 9.99998C81.1743 9.73483 80.6629 9.60225 80.0569 9.60225C79.4432 9.60225 78.8675 9.74619 78.3296 10.0341C77.7993 10.3144 77.3485 10.6932 76.9773 11.1704C76.6061 11.6477 76.3637 12.1856 76.2501 12.7841L75.6478 16.0909C75.5266 16.8257 75.5607 17.4545 75.7501 17.9773C75.9394 18.5 76.2652 18.9015 76.7273 19.1818C77.1894 19.4545 77.7841 19.5909 78.5114 19.5909C78.9963 19.5909 79.4508 19.5265 79.8751 19.3977C80.2993 19.2613 80.6781 19.0606 81.0114 18.7954C81.3523 18.5227 81.6288 18.1932 81.841 17.8068L86.9091 17.9545C86.5001 19.0985 85.8675 20.0947 85.0114 20.9432C84.1554 21.7841 83.1099 22.4394 81.8751 22.9091C80.6478 23.3712 79.269 23.6023 77.7387 23.6023ZM96.2927 5.81816L98.2018 11.5682L102.145 5.81816H107.747L101.418 14.5454L105.02 23.2727H99.4631L97.2131 17.4773L93.1336 23.2727H87.4972L94.0199 14.5454L90.6563 5.81816H96.2927Z" fill="#44485D"/>
</svg>
